<svg width="25" height="26" viewBox="0 0 25 26" fill="none" xmlns="http://www.w3.org/2000/svg">
<path d="M0 1.73047C0 1.44868 0.111942 1.17843 0.311199 0.979168C0.510456 0.77991 0.780707 0.667969 1.0625 0.667969H1.853C3.19883 0.667969 4.00633 1.57322 4.46675 2.41472C4.77417 2.97572 4.99658 3.62597 5.17083 4.2153L5.3125 4.20964H23.018C24.1938 4.20964 25.0438 5.33447 24.7208 6.46639L22.1312 15.5458C21.899 16.3602 21.4078 17.0767 20.7319 17.5869C20.056 18.0972 19.2323 18.3733 18.3855 18.3735H9.95917C9.10562 18.3735 8.27568 18.0932 7.59691 17.5757C6.91815 17.0582 6.42812 16.3321 6.20217 15.509L5.1255 11.582L3.3405 5.56397L3.33908 5.55264C3.11808 4.74939 2.91125 3.99714 2.60242 3.43614C2.30633 2.89072 2.06833 2.79297 1.85442 2.79297H1.0625C0.780707 2.79297 0.510456 2.68103 0.311199 2.48177C0.111942 2.28251 0 2.01226 0 1.73047ZM9.20833 25.4596C9.95978 25.4596 10.6804 25.1611 11.2118 24.6298C11.7432 24.0984 12.0417 23.3777 12.0417 22.6263C12.0417 21.8749 11.7432 21.1542 11.2118 20.6228C10.6804 20.0915 9.95978 19.793 9.20833 19.793C8.45689 19.793 7.73622 20.0915 7.20486 20.6228C6.67351 21.1542 6.375 21.8749 6.375 22.6263C6.375 23.3777 6.67351 24.0984 7.20486 24.6298C7.73622 25.1611 8.45689 25.4596 9.20833 25.4596ZM19.125 25.4596C19.8764 25.4596 20.5971 25.1611 21.1285 24.6298C21.6598 24.0984 21.9583 23.3777 21.9583 22.6263C21.9583 21.8749 21.6598 21.1542 21.1285 20.6228C20.5971 20.0915 19.8764 19.793 19.125 19.793C18.3736 19.793 17.6529 20.0915 17.1215 20.6228C16.5902 21.1542 16.2917 21.8749 16.2917 22.6263C16.2917 23.3777 16.5902 24.0984 17.1215 24.6298C17.6529 25.1611 18.3736 25.4596 19.125 25.4596Z" fill="black"/>
</svg>
