<svg width="30" height="30" viewBox="0 0 30 30" fill="none" xmlns="http://www.w3.org/2000/svg">
<g style="mix-blend-mode:plus-darker">
<path fill-rule="evenodd" clip-rule="evenodd" d="M15 30C23.2843 30 30 23.2843 30 15C30 6.71573 23.2843 0 15 0C6.71573 0 0 6.71573 0 15C0 23.2843 6.71573 30 15 30ZM22.36 11.0153C22.3208 11.0204 22.2792 11.0258 22.2425 11.0329C22.2301 11.0344 22.2183 11.0395 22.2088 11.0476C22.1992 11.0557 22.1922 11.0664 22.1887 11.0785C22.1852 11.0905 22.1853 11.1033 22.189 11.1153C22.1927 11.1273 22.1998 11.1379 22.2095 11.1459L22.4455 11.3019C22.5252 11.3585 22.5951 11.4278 22.6525 11.5069C22.6581 11.5167 22.6611 11.5278 22.6613 11.539C22.6615 11.5503 22.6588 11.5615 22.6535 11.5715C22.6482 11.5814 22.6405 11.5899 22.6311 11.5961C22.6216 11.6023 22.6108 11.606 22.5995 11.6069C22.4248 11.6327 22.2529 11.6755 22.0865 11.7349C22.0415 11.769 21.9924 11.7975 21.9405 11.8199C21.907 11.8363 21.8782 11.861 21.8569 11.8916C21.8356 11.9222 21.8223 11.9578 21.8185 11.9949C21.8245 12.3402 21.8082 12.6856 21.7695 13.0289C21.7083 13.685 21.4075 14.2955 20.9245 14.7439C20.5285 14.9486 20.1003 15.0839 19.6585 15.1439C19.9669 15.9089 20.1623 16.7146 20.2385 17.5359C20.1822 17.9346 20.0451 18.3176 19.8357 18.6614C19.6263 19.0053 19.3489 19.3029 19.0205 19.5359C18.83 20.0224 18.4634 20.4194 17.9935 20.6479C17.9085 20.9749 17.8025 21.3509 17.6845 21.7229C17.5585 22.1579 17.4455 22.4819 17.3515 22.7349C17.5716 22.7203 17.7922 22.7545 17.9975 22.8349C18.1025 22.9349 18.2455 23.0799 18.2455 23.0879L18.3015 23.1469C18.3046 23.1506 18.3066 23.1551 18.3071 23.1599C18.3077 23.1647 18.3069 23.1695 18.3048 23.1739C18.3027 23.1782 18.2994 23.1818 18.2952 23.1843C18.2911 23.1868 18.2863 23.188 18.2815 23.1879H18.1965C18.0665 23.1949 17.7745 23.1949 17.6845 23.0949C17.5386 23.1133 17.3956 23.1496 17.2585 23.2029C17.1863 23.2254 17.1252 23.2743 17.0875 23.3399C16.9815 23.5299 16.9205 23.5489 16.8875 23.5559C16.4374 23.6306 15.9956 23.7492 15.5685 23.9099C15.4494 23.972 15.2188 24.1061 15.0252 24.2188C14.9538 24.2603 14.8874 24.2989 14.8335 24.3299C14.8265 24.3344 14.8183 24.3365 14.8099 24.336C14.8016 24.3355 14.7937 24.3323 14.7873 24.3269C14.781 24.3215 14.7765 24.3143 14.7745 24.3062C14.7726 24.2981 14.7733 24.2896 14.7765 24.2819C14.8945 24.0769 15.0645 23.7829 15.1945 23.7529C15.3032 23.71 15.4068 23.6553 15.5035 23.5899C15.3045 23.5529 15.0605 23.5119 14.8415 23.4819C14.7605 23.6079 14.7115 23.6199 14.6825 23.6269C14.2458 23.7015 13.8195 23.8278 13.4125 24.0029C13.3634 24.0206 13.0276 24.1975 12.78 24.328C12.7198 24.3597 12.6649 24.3886 12.6205 24.4119C12.5835 24.4269 12.5475 24.3929 12.5635 24.3639C12.6735 24.1629 12.8555 23.8579 12.9855 23.8279C13.0939 23.784 13.1974 23.729 13.2945 23.6639C13.1612 23.64 13.068 23.5976 12.9764 23.5559C12.884 23.5138 12.7932 23.4725 12.6645 23.4519C12.4945 23.4259 12.1095 23.3889 11.9095 23.3699C11.9013 23.3691 11.8936 23.3655 11.8877 23.3598C11.8818 23.354 11.8781 23.3463 11.8771 23.3381C11.8762 23.3299 11.8781 23.3216 11.8825 23.3147C11.887 23.3077 11.8937 23.3025 11.9015 23.2999C12.3013 23.2022 12.7088 23.14 13.1195 23.1139C13.1645 23.1099 13.4325 23.1019 13.4645 23.1019C13.4605 23.1019 13.2415 23.0349 13.2415 23.0349C13.1315 23.0239 12.8395 23.0239 12.6485 23.0239C12.6085 23.0239 12.5915 22.9719 12.6325 22.9569C12.805 22.8792 12.9863 22.8231 13.1725 22.7899C13.4514 22.7778 13.7307 22.7851 14.0085 22.8119C14.0664 22.8187 14.1249 22.8074 14.176 22.7794C14.227 22.7515 14.2681 22.7083 14.2935 22.6559C14.5761 21.9889 14.7976 21.2978 14.9555 20.5909C14.7271 20.47 14.5119 20.3256 14.3135 20.1599C14.0772 19.9783 13.8498 19.7741 13.64 19.5856C13.3631 19.337 13.1168 19.1157 12.9205 19.0099C12.6973 18.8908 12.42 18.6362 12.1451 18.3837C11.9398 18.195 11.7357 18.0076 11.5565 17.8789C11.4465 17.7998 11.2449 17.716 10.9865 17.6084C10.2608 17.3064 9.08637 16.8177 8.22953 15.7249C7.50831 14.778 7.17858 13.5901 7.30853 12.4069C7.40054 11.6443 7.61743 10.902 7.95053 10.2099C7.9089 10.2792 7.85225 10.3382 7.78475 10.3827C7.71725 10.4272 7.64062 10.456 7.56053 10.4669C7.47827 10.4807 7.39399 10.4764 7.31355 10.4543C7.23312 10.4322 7.15846 10.3929 7.09478 10.339C7.03111 10.2851 6.97994 10.218 6.94483 10.1424C6.90973 10.0667 6.89154 9.98429 6.89153 9.90088C6.90726 9.77635 6.94094 9.65476 6.99153 9.53988H6.75153C6.62069 9.52366 6.48798 9.547 6.37053 9.60688L6.17953 9.70688C6.11012 9.72947 6.04822 9.77063 6.00053 9.82588C5.99481 9.66534 6.0358 9.50659 6.11853 9.36888C6.21075 9.25874 6.31583 9.16004 6.43153 9.07488L6.42253 8.97488L6.44353 8.88588L6.42753 8.79988C6.42076 8.76307 6.42397 8.72511 6.4368 8.68995C6.44964 8.65478 6.47164 8.62369 6.50053 8.59988L6.57353 8.54088L6.58953 8.49588C6.59535 8.48028 6.6059 8.46688 6.6197 8.45756C6.63351 8.44824 6.64988 8.44346 6.66653 8.44388H6.79453C6.79453 8.44388 6.70853 8.18388 6.74953 8.16488C6.79053 8.14588 6.89953 8.18388 6.89953 8.18388C6.89953 8.18388 6.84653 7.85188 6.89953 7.83388C7.00453 7.79288 7.15453 8.05688 7.15453 8.05688C7.15453 8.05688 6.91453 7.62588 7.11453 7.53588C7.22653 7.48388 7.42653 7.81888 7.42653 7.81888C7.42653 7.81888 7.31753 7.52488 7.42653 7.46888C7.49353 7.43688 7.59353 7.63688 7.59353 7.63688L7.63853 7.50588C7.64228 7.49657 7.64793 7.48814 7.65513 7.48114C7.66233 7.47414 7.67092 7.46873 7.68033 7.46524C7.68975 7.46176 7.69979 7.46028 7.70982 7.46091C7.71984 7.46153 7.72962 7.46425 7.73853 7.46888L7.76653 7.48788L7.92153 7.53588L7.97853 7.61388L8.11653 7.72588C8.11653 7.72588 8.19353 7.84488 8.18553 7.89288C8.16483 7.94071 8.14042 7.98686 8.11253 8.03088C8.10571 8.04323 8.10247 8.05724 8.10316 8.07133C8.10385 8.08542 8.10845 8.09904 8.11644 8.11066C8.12443 8.12229 8.1355 8.13146 8.14841 8.13715C8.16132 8.14284 8.17555 8.14482 8.18953 8.14288C8.30328 8.13011 8.41833 8.13517 8.53053 8.15788C9.11228 8.28693 9.64991 8.5666 10.0895 8.96888C10.3808 9.25681 10.6373 9.77635 10.884 10.2761C11.1565 10.8282 11.4171 11.3561 11.6995 11.5209C12.4514 11.795 13.2463 11.9321 14.0465 11.9259C14.8151 11.933 15.5833 11.8909 16.3465 11.7999C16.9985 11.6188 17.5889 11.2638 18.0545 10.7729C18.1799 10.6335 18.2692 10.5319 18.3225 10.4679C18.3543 10.4322 18.3751 10.3881 18.3825 10.3409C18.4435 9.93588 18.8015 7.88188 19.3125 7.41288C19.5538 7.1762 19.8698 7.03059 20.2065 7.00088C20.2604 6.99659 20.3144 7.008 20.362 7.03373C20.4095 7.05946 20.4486 7.09842 20.4745 7.14588L20.5185 7.23488C20.5481 7.29197 20.597 7.33665 20.6565 7.36088L20.7145 7.38388C20.7474 7.39621 20.7771 7.41558 20.8016 7.44063C20.8261 7.46569 20.8449 7.49581 20.8565 7.52888V7.52988C20.8769 7.58903 20.873 7.65385 20.8456 7.71011C20.8183 7.76636 20.7697 7.80944 20.7105 7.82988L20.6945 7.83688L20.7265 7.85188C20.7432 7.85864 20.7581 7.86934 20.7698 7.88306C20.7815 7.89678 20.7897 7.91312 20.7937 7.9307C20.7977 7.94827 20.7974 7.96655 20.7929 7.98399C20.7883 8.00144 20.7796 8.01752 20.7675 8.03088L20.4875 8.33088C20.4785 8.34202 20.4726 8.35539 20.4704 8.36959C20.4683 8.38379 20.4701 8.3983 20.4755 8.4116C20.4809 8.42489 20.4898 8.43649 20.5012 8.44516C20.5127 8.45383 20.5263 8.45926 20.5405 8.46088C20.5683 8.46782 20.5976 8.46493 20.6235 8.45272C20.6494 8.44051 20.6702 8.41972 20.6825 8.39388C20.7755 8.17688 21.0475 7.64688 21.3885 7.77688C21.8105 7.94188 21.7335 8.27688 21.7335 8.27688C21.7335 8.27688 22.2565 8.32788 22.3335 8.49188C22.4105 8.65588 22.3335 8.73788 22.3335 8.73788C22.3335 8.73788 22.4355 8.78588 22.4195 8.86388C22.4101 8.91948 22.4101 8.97628 22.4195 9.03188C22.4558 9.12583 22.4761 9.22521 22.4795 9.32588C22.4784 9.37268 22.4631 9.41804 22.4355 9.45588C22.4285 9.46444 22.4234 9.47442 22.4206 9.48514C22.4177 9.49585 22.4173 9.50705 22.4191 9.51797C22.421 9.52889 22.4253 9.53927 22.4316 9.5484C22.4378 9.55753 22.446 9.5652 22.4555 9.57088C22.5497 9.63285 22.6202 9.72482 22.6555 9.83188C22.6811 9.9424 22.6817 10.0572 22.6571 10.168C22.6325 10.2787 22.5835 10.3826 22.5135 10.4719C22.4902 10.5043 22.4735 10.541 22.4645 10.5799C22.4586 10.6073 22.4638 10.636 22.479 10.6596C22.4941 10.6833 22.5181 10.6999 22.5455 10.7059C22.5687 10.7116 22.5901 10.7231 22.6076 10.7394C22.6251 10.7556 22.6382 10.7761 22.6455 10.7989C22.6536 10.8251 22.665 10.8573 22.6769 10.8908C22.6885 10.9236 22.7006 10.9577 22.7105 10.9889C22.7132 11.0004 22.7124 11.0124 22.7084 11.0234C22.7043 11.0345 22.6972 11.0442 22.6878 11.0512C22.6783 11.0583 22.6671 11.0625 22.6553 11.0634C22.6436 11.0642 22.6318 11.0616 22.6215 11.0559C22.5603 11.0224 22.4913 11.0055 22.4215 11.0069C22.4026 11.0097 22.3817 11.0125 22.36 11.0153ZM16.2485 22.7299C16.3565 22.7379 16.5165 22.7379 16.5565 22.6479C16.853 21.9486 17.0856 21.224 17.2515 20.4829C17.0155 20.2745 16.8566 19.9927 16.8005 19.6829C16.8005 19.6829 16.7765 19.8139 16.4915 20.0779C16.2554 20.2546 16.0026 20.4077 15.7365 20.5349C15.6395 20.8999 15.1435 22.5109 15.0545 22.7559C15.1645 22.7337 15.2757 22.7176 15.3875 22.7079C15.6746 22.6904 15.9627 22.6978 16.2485 22.7299Z" fill="#FDCE00"/>
</g>
</svg>
