<svg width="30" height="30" viewBox="0 0 30 30" fill="none" xmlns="http://www.w3.org/2000/svg">
<g style="mix-blend-mode:plus-darker">
<path fill-rule="evenodd" clip-rule="evenodd" d="M15 30C23.2843 30 30 23.2843 30 15C30 6.71573 23.2843 0 15 0C6.71573 0 0 6.71573 0 15C0 23.2843 6.71573 30 15 30ZM16.5816 17.7291H13.8605V22.5H12.2279C12.0915 22.4999 11.96 22.4499 11.8597 22.3599C11.7593 22.2699 11.6973 22.1465 11.6859 22.0141C11.6746 21.8816 11.7147 21.7499 11.7983 21.6449C11.882 21.5399 12.003 21.4694 12.1375 21.4472L11.9498 19.2526C10.943 18.4135 10.0434 16.7458 9.19059 14.6042C9.15322 14.5837 9.11639 14.5607 9.08011 14.5353L7.88827 13.6914C7.70217 13.5594 7.47791 13.4883 7.24773 13.4883H5.41861C5.18452 13.4884 4.95665 13.4149 4.76881 13.2788C4.58098 13.1428 4.44319 12.9513 4.37589 12.7329L4.21262 12.2028C4.16383 12.0445 4.15372 11.8773 4.18311 11.7144C4.2125 11.5516 4.28057 11.3978 4.38188 11.2651C4.48319 11.1325 4.61494 11.0248 4.7666 10.9506C4.91826 10.8764 5.08563 10.8378 5.25534 10.8378H5.37072L7.3212 8.463C7.2031 8.37607 7.06977 8.28489 6.91466 8.18735H5.96936C5.89719 8.18735 5.82798 8.15943 5.77695 8.10972C5.72592 8.06001 5.69725 7.9926 5.69725 7.9223C5.69725 7.85201 5.72592 7.78459 5.77695 7.73489C5.82798 7.68518 5.89719 7.65725 5.96936 7.65725C7.7397 7.57244 8.75358 7.81893 9.51494 8.37024C9.65753 8.2181 9.83276 8.06437 10.0325 7.92124C10.5223 7.56979 10.6861 7.56396 11.0556 7.55176L11.0588 7.55165C11.2095 7.54637 11.3948 7.53988 11.6499 7.5083C12.5348 7.3991 12.1332 8.39515 11.4426 8.89026C11.1786 9.08004 10.8113 9.22422 10.4466 9.31434L10.5294 9.42354C11.1966 9.62498 11.9911 9.77765 13.0442 9.77765H21.0562C21.1066 9.77775 21.1571 9.77898 21.2075 9.78136V9.77765C21.238 9.77765 22.3705 9.77765 22.4118 9.77871C23.5095 9.79673 24.4015 10.0109 25.0094 10.5797C25.6249 11.1559 25.8333 11.986 25.8333 12.9582L25.6227 15.8314C25.7506 16.0249 25.8333 16.3281 25.8333 16.6689C25.8333 17.2547 25.5901 17.7291 25.2891 17.7291C24.9882 17.7291 24.7449 17.2547 24.7449 16.6689C24.7449 16.3281 24.8271 16.0249 24.9555 15.8314L24.7449 12.9582C24.7449 12.1058 24.5582 11.6282 24.2551 11.3446C24.0869 11.1872 23.8497 11.0573 23.5095 10.9682C23.9601 11.5385 24.2033 12.2386 24.2007 12.9582V22.5H22.568C22.4316 22.4999 22.3002 22.4499 22.1998 22.3599C22.0995 22.2699 22.0375 22.1465 22.0261 22.0141C22.0147 21.8816 22.0548 21.7499 22.1385 21.6449C22.2221 21.5399 22.3432 21.4694 22.4777 21.4472L22.3084 19.4705C21.9463 19.8025 21.5122 20.0511 21.0382 20.1978L21.048 20.2481C21.0635 20.3172 21.0646 20.3885 21.0514 20.458C21.0381 20.5275 21.0107 20.5937 20.9708 20.6527C20.9309 20.7117 20.8793 20.7624 20.819 20.8017C20.7587 20.841 20.691 20.8682 20.6197 20.8816C20.5485 20.895 20.4753 20.8944 20.4043 20.8799C20.3333 20.8653 20.266 20.8371 20.2063 20.7969C20.1467 20.7566 20.0959 20.7052 20.057 20.6455C20.0181 20.5859 19.9918 20.5193 19.9797 20.4496L19.9656 20.378C19.5944 20.3897 19.2234 20.3492 18.8641 20.2577L18.8189 20.3393C18.7506 20.4632 18.6346 20.5555 18.4964 20.5961C18.3583 20.6367 18.2092 20.6221 18.082 20.5556C17.817 20.4167 17.7201 20.0918 17.8622 19.8336C17.6058 19.6746 17.3794 19.4848 17.1911 19.2717L17.1307 19.2961C16.9972 19.3493 16.8473 19.3486 16.7143 19.2943C16.5812 19.2399 16.4757 19.1362 16.4211 19.0061L16.4004 18.9563C16.3514 18.8394 16.352 18.7085 16.402 18.592C16.452 18.4756 16.5473 18.3832 16.6671 18.335C16.6105 18.1399 16.582 17.938 16.5816 17.7291ZM17.6701 17.7291H19.1993H19.1999C19.756 18.2571 20.3596 18.7066 21.1378 19.0088C20.7977 19.1975 20.3645 19.3194 19.8469 19.3194C18.4505 19.3194 17.6701 18.4341 17.6701 17.7291Z" fill="#FDCE00"/>
</g>
</svg>
