<svg width="30" height="30" viewBox="0 0 30 30" fill="none" xmlns="http://www.w3.org/2000/svg">
<g style="mix-blend-mode:plus-darker">
<path fill-rule="evenodd" clip-rule="evenodd" d="M15 30C23.2843 30 30 23.2843 30 15C30 6.71573 23.2843 0 15 0C6.71573 0 0 6.71573 0 15C0 23.2843 6.71573 30 15 30ZM17.4401 21.2866L17.5724 18.8347L19.6793 18.7646L18.7258 21.2866H17.4401ZM10.2119 19.049L10.1953 18.8497H10.1943C9.59475 18.8359 8.99652 18.7908 8.40244 18.7145L8.12511 21.2866H9.32262L10.2119 19.049ZM7.94921 11.3303C8.16073 11.3617 8.37443 11.3788 8.58862 11.3813C8.5883 11.3813 8.58797 11.3813 8.58765 11.3813H8.58863C8.58863 11.3813 8.58862 11.3813 8.58862 11.3813C10.0892 11.3808 8.81491 10.2008 8.7522 10.1428C8.75062 10.1413 8.74981 10.1405 8.74983 10.1405C8.13883 9.4842 6.16129 9.07455 6.16129 9.07455C6.16129 9.07455 5.44053 10.9835 7.94921 11.3303ZM5.35822 10.2657C4.91185 10.2284 4.57817 10.2284 4.57817 10.2284H4.5767C4.5767 10.2284 4.40717 11.5202 5.64436 11.9494C5.75005 11.7281 5.87184 11.5139 6.0089 11.308C5.68898 11.0257 5.46313 10.6639 5.35822 10.2657ZM4 16.6767V14.7882C4 14.7882 4.66147 14.6235 5.28815 14.4997C5.56962 14.4431 5.72155 13.9909 5.91885 13.4035C6.0918 12.8886 6.29961 12.27 6.66008 11.7232C7.0313 11.8884 7.42809 11.9987 7.83603 12.05C8.0858 12.0869 8.33817 12.1067 8.59108 12.1091C9.52253 12.1091 9.88413 11.7259 10.0238 11.4073C10.1962 11.0113 10.0948 10.5643 9.72244 10.0786C9.60699 9.92969 9.47973 9.78896 9.34173 9.65762C11.1616 8.76248 13.1886 8.29197 15.2479 8.28666C17.3888 8.28129 19.4902 8.82144 21.3236 9.84833C22.4839 10.4938 23.2375 11.3463 23.701 12.2953C23.8553 12.1924 24.0058 12.0873 24.1464 11.9826C23.7294 11.6285 23.3737 11.171 23.1978 10.7482C22.99 10.2539 23.2007 9.94574 23.3448 9.806C23.7319 9.43049 24.4943 9.40955 25.0474 9.58297C25.224 9.63398 25.386 9.72133 25.5212 9.83851C25.6564 9.95569 25.7614 10.0997 25.8285 10.2598C25.9833 10.6453 25.9172 11.1228 25.6403 11.5702C25.5745 11.6742 25.4993 11.7727 25.4154 11.8647C25.4429 11.8691 25.4708 11.8708 25.4987 11.8697C25.9039 11.8497 26.3258 11.5479 26.4532 11.4341L27 11.9557C26.9309 12.0176 26.3131 12.5584 25.5408 12.5971C25.3086 12.6089 25.0572 12.5425 24.8059 12.4218C24.5437 12.628 24.2581 12.8251 23.9862 12.9999C25.2096 16.6631 22.8504 21.2866 22.8504 21.2866H21.7416L21.281 17.9762L13.3145 18.2434L12.1165 21.2866H11.1855L10.917 18.1196C10.8731 18.1205 10.829 18.1222 10.7851 18.1238C10.7196 18.1262 10.6544 18.1287 10.5902 18.1287C6.60423 18.1287 4 16.6767 4 16.6767ZM23.9112 10.3099C23.8754 10.3445 23.9058 10.435 23.9269 10.486C24.0797 10.8533 24.3997 11.2275 24.726 11.4924C24.8151 11.4057 24.8938 11.3104 24.9607 11.2079C25.118 10.9544 25.167 10.6963 25.0955 10.5165C25.0479 10.3995 24.9504 10.3194 24.7971 10.2716C24.6521 10.228 24.5006 10.2062 24.3482 10.207C24.1469 10.207 23.9759 10.2471 23.9112 10.3099ZM7.77651 13.969C7.72778 14.0368 7.70177 14.1164 7.70177 14.1979C7.70177 14.3071 7.74849 14.4119 7.83165 14.4892C7.91481 14.5664 8.0276 14.6098 8.1452 14.6098C8.2329 14.6098 8.31864 14.5857 8.39156 14.5404C8.46448 14.4951 8.52132 14.4308 8.55488 14.3555C8.58844 14.2803 8.59722 14.1974 8.58011 14.1175C8.563 14.0376 8.52077 13.9642 8.45875 13.9066C8.39674 13.849 8.31773 13.8098 8.23171 13.7939C8.14569 13.778 8.05654 13.7861 7.97551 13.8173C7.89448 13.8485 7.82523 13.9013 7.77651 13.969Z" fill="#FDCE00"/>
</g>
</svg>
