<svg width="30" height="31" viewBox="0 0 30 31" fill="none" xmlns="http://www.w3.org/2000/svg">
<g style="mix-blend-mode:plus-darker">
<path fill-rule="evenodd" clip-rule="evenodd" d="M15 30.3623C23.2843 30.3623 30 23.6466 30 15.3623C30 7.07803 23.2843 0.362305 15 0.362305C6.71573 0.362305 0 7.07803 0 15.3623C0 23.6466 6.71573 30.3623 15 30.3623ZM17.177 6.4124C18.3295 6.19494 19.3925 5.99438 20.247 6.00012C20.728 6.00354 21.1537 6.06661 21.5006 6.28926C21.7648 6.46214 21.9461 6.7433 22.0131 7.07727H21.2917C21.2562 6.97735 21.1931 6.9158 21.1025 6.85766C20.9487 6.7566 20.653 6.68783 20.2391 6.68403C19.4773 6.67873 18.3719 6.88593 17.1568 7.11369C17.0639 7.1311 16.9704 7.14862 16.8764 7.16618C16.6083 7.21672 16.3324 7.26649 16.0525 7.31512C15.3034 8.03247 13.8409 8.34934 12.3192 8.45117C10.7857 8.55414 9.21546 8.41583 8.25396 7.85389L8.62216 7.26953C9.30614 7.66999 10.8251 7.86567 12.2719 7.76916C12.6227 7.7456 12.9696 7.70343 13.3008 7.6472C11.9526 7.68519 10.4545 7.52941 9.33767 6.50203L9.8474 6.02862C10.5255 6.70948 11.5583 6.96291 12.7883 6.97203C14.0222 6.98115 15.4217 6.74102 16.7384 6.49481C16.8859 6.46732 17.0321 6.43973 17.177 6.4124ZM14.0301 8.86113C17.0025 8.07312 20.5151 7.74256 22.2851 7.75168C22.3005 7.7518 22.3157 7.7519 22.3308 7.752C22.4119 7.75254 22.4879 7.75304 22.5611 7.75624C22.0447 7.8953 20.6097 8.46485 20.0223 8.97512C21.063 8.74487 22.841 8.36112 24 8.27449C23.1445 8.75589 20.4283 9.99946 19.3206 10.3984C20.1445 10.4288 20.586 10.406 21.5361 10.1818C19.3639 12.1994 17.5347 13.0504 14.6412 13.8255C13.7542 12.5223 12.741 11.1659 10.7029 10.1286C11.4913 9.6765 12.4966 9.29655 13.5965 8.98082C13.1628 9.18637 12.8593 9.61571 12.8593 10.1096C12.8593 10.7974 13.4467 11.3635 14.1602 11.3635C14.8737 11.3635 15.4611 10.7974 15.4611 10.1096C15.4611 9.42194 14.8737 8.85467 14.1602 8.85467C14.1168 8.85467 14.0735 8.85695 14.0301 8.86113ZM13.5689 10.1096C13.5689 9.79049 13.8291 9.53972 14.1602 9.53972C14.4913 9.53972 14.7515 9.79049 14.7515 10.1096C14.7515 10.4288 14.4913 10.6796 14.1602 10.6796C13.8291 10.6796 13.5689 10.4288 13.5689 10.1096ZM7.77616 13.2024C8.17117 12.2943 8.71677 11.3255 9.40982 10.3072C11.9841 11.3103 13.0288 12.7009 14.0262 14.1789C13.2929 14.9008 12.7252 15.5885 12.331 16.2534C10.0287 15.6037 8.76566 14.5019 7.77616 13.2024ZM7.1115 17.606C6.88245 16.5156 7.00663 15.2997 7.48088 13.9547C8.48773 15.163 9.84346 16.2344 12.0077 16.8689C11.7397 17.4655 11.6253 18.0392 11.6648 18.5901C9.44135 19.0536 8.38681 18.4989 7.1115 17.606ZM14.0183 15.182C14.172 15.011 14.3376 14.84 14.515 14.6652C15.7686 15.3719 16.7384 16.2382 17.6609 17.4692L17.0853 17.872C16.1747 16.6524 15.264 15.8545 14.0183 15.182ZM13.0012 16.4966C13.1155 16.3066 13.2495 16.1128 13.3994 15.9153C13.8015 16.0862 14.2706 16.3446 14.7397 16.66C15.3744 17.0855 15.9855 17.5832 16.289 18.138L15.6582 18.4571C15.473 18.1076 14.925 17.6136 14.3337 17.2185C13.8566 16.9031 13.3402 16.6334 13.0012 16.4966ZM12.4059 17.9442C12.4453 17.7276 12.5084 17.4996 12.607 17.2641C12.946 17.3249 13.2771 17.5072 13.6162 17.72C14.1129 18.0354 14.5899 18.4609 14.8895 18.9169L14.2903 19.2816C14.0735 18.9473 13.6477 18.5597 13.2259 18.2899C12.9145 18.0962 12.5912 17.9822 12.4059 17.9442ZM11.2114 22.0514C9.29431 21.1054 8.06552 19.9617 7.45841 18.6509C8.57958 19.293 9.85529 19.654 11.7949 19.2588C12.0077 19.9237 12.4611 20.5126 13.1273 21.0332C12.8672 21.4853 12.6148 21.6981 12.3428 21.8273C12.0353 21.9716 11.6687 22.0134 11.2114 22.0514ZM19.0604 21.8273C20.3495 21.5689 21.6386 21.4055 22.0486 21.4093C22.2694 21.4131 22.9474 21.4283 22.9277 21.8425C22.908 22.0666 22.6912 22.4428 22.4192 22.7581C22.0447 22.6593 21.6071 22.5834 21.1222 22.5112C20.4205 22.4124 19.632 22.344 18.8751 22.3288C18.6228 22.325 18.3705 22.325 18.13 22.3326C17.519 22.3478 16.9631 22.3934 16.5019 22.5112C17.1839 22.2642 18.134 22.0172 19.0604 21.8273ZM12.3586 22.5568C12.9499 22.3744 13.3205 21.9754 13.7029 21.4359C14.2745 21.7969 14.9565 22.1198 15.7371 22.4162C15.8041 22.8151 15.5006 23.1913 15.1734 23.4686C14.1287 23.1951 13.1944 22.8911 12.3586 22.5568ZM15.8356 23.6852L16.1983 23.3699C17.7121 22.5492 20.7713 23.1305 22.6951 23.5978C21.769 23.9695 20.4336 23.976 19.215 23.9819C18.8514 23.9837 18.4983 23.9854 18.1694 23.9968C17.2075 24.0272 16.36 23.8372 15.8356 23.6852Z" fill="#FDCE00"/>
</g>
</svg>
