<svg width="40" height="29" viewBox="0 0 40 29" fill="none" xmlns="http://www.w3.org/2000/svg">
<path fill-rule="evenodd" clip-rule="evenodd" d="M17.9999 19.9998H22.9999C23.0006 20.3938 23.0529 20.7748 23.1569 21.1428C22.9369 21.2336 22.7617 21.4079 22.6699 21.6276C22.578 21.8472 22.577 22.0943 22.6669 22.3148L22.7049 22.4088C22.8053 22.6542 22.9991 22.8497 23.2437 22.9523C23.4882 23.0549 23.7635 23.0561 24.0089 22.9558L24.1199 22.9098C24.4659 23.3118 24.8819 23.6698 25.3529 23.9698C25.0919 24.4568 25.2699 25.0698 25.7569 25.3318C25.9906 25.4572 26.2645 25.4847 26.5184 25.4082C26.7724 25.3317 26.9855 25.1574 27.1109 24.9238L27.1939 24.7698C27.8542 24.9423 28.5359 25.0188 29.2179 24.9968L29.2439 25.1318C29.2662 25.2632 29.3145 25.3889 29.386 25.5014C29.4575 25.6139 29.5508 25.711 29.6604 25.7869C29.7699 25.8628 29.8936 25.9161 30.024 25.9435C30.1545 25.971 30.2891 25.9721 30.42 25.9467C30.5509 25.9214 30.6754 25.8702 30.7861 25.796C30.8969 25.7219 30.9918 25.6263 31.0651 25.515C31.1384 25.4036 31.1887 25.2788 31.2131 25.1477C31.2374 25.0166 31.2354 24.882 31.2069 24.7518L31.1889 24.6568C32.0599 24.38 32.8575 23.9112 33.5229 23.2848L33.8339 27.0138C33.5868 27.0556 33.3643 27.1887 33.2107 27.3867C33.057 27.5847 32.9833 27.8333 33.0042 28.0831C33.025 28.3329 33.139 28.5657 33.3234 28.7355C33.5078 28.9053 33.7493 28.9996 33.9999 28.9998H36.9999V10.9998C37.0047 9.64222 36.5579 8.32162 35.7299 7.24578C36.3549 7.41378 36.7909 7.65878 37.0999 7.95578C37.6569 8.49078 37.9999 9.39178 37.9999 10.9998L38.3869 16.4198C38.1509 16.7848 37.9999 17.3568 37.9999 17.9998C37.9999 19.1048 38.4469 19.9998 38.9999 19.9998C39.5529 19.9998 39.9999 19.1048 39.9999 17.9998C39.9999 17.3568 39.8479 16.7848 39.6129 16.4198L39.9999 10.9998C39.9999 9.16578 39.6169 7.59978 38.4859 6.51278C37.3689 5.43978 35.7299 5.03578 33.7129 5.00178C33.6369 4.99978 31.5559 4.99978 31.4999 4.99978V5.00678C31.4073 5.0023 31.3146 4.99996 31.2219 4.99978H16.4999C14.5649 4.99978 13.1049 4.71178 11.8789 4.33178L11.7269 4.12578C12.3969 3.95578 13.0719 3.68378 13.5569 3.32578C14.8259 2.39178 15.5639 0.512776 13.9379 0.718776C13.4659 0.778776 13.1239 0.790776 12.8459 0.800776C12.1669 0.823776 11.8659 0.834777 10.9659 1.49778C10.5989 1.76778 10.2769 2.05778 10.0149 2.34478C8.61594 1.30478 6.75294 0.839776 3.49994 0.999776C3.36733 0.999776 3.24015 1.05245 3.14639 1.14622C3.05262 1.23999 2.99994 1.36717 2.99994 1.49978C2.99994 1.63238 3.05262 1.75956 3.14639 1.85333C3.24015 1.9471 3.36733 1.99978 3.49994 1.99978H5.23694C5.52194 2.18378 5.76694 2.35578 5.98394 2.51978L2.39994 6.99978H2.18794C1.87609 6.99971 1.56855 7.07256 1.28987 7.21253C1.0112 7.35249 0.76911 7.55568 0.582951 7.80587C0.396791 8.05605 0.271716 8.34631 0.217714 8.65345C0.163713 8.96058 0.182282 9.2761 0.271939 9.57478L0.571939 10.5748C0.695604 10.9868 0.948796 11.3479 1.29394 11.6046C1.63909 11.8613 2.0578 11.9999 2.48794 11.9998H5.84894C6.2719 11.9998 6.68397 12.1339 7.02594 12.3828L9.21594 13.9748C9.28261 14.0228 9.35027 14.0661 9.41894 14.1048C10.9859 18.1448 12.6389 21.2908 14.4889 22.8738L14.8339 27.0138C14.5868 27.0556 14.3643 27.1887 14.2107 27.3867C14.057 27.5847 13.9833 27.8333 14.0042 28.0831C14.025 28.3329 14.139 28.5657 14.3234 28.7355C14.5078 28.9053 14.7493 28.9996 14.9999 28.9998H17.9999V19.9998ZM27.8099 19.9998H24.9999C24.9999 21.3298 26.4339 22.9998 28.9999 22.9998C29.9509 22.9998 30.7469 22.7698 31.3719 22.4138C29.9419 21.8438 28.8329 20.9958 27.8109 19.9998" fill="black"/>
</svg>
