<svg width="144" height="141" viewBox="0 0 144 141" fill="none" xmlns="http://www.w3.org/2000/svg">
<path d="M50.434 105.429H93.6372C94.6293 105.429 95.4686 105.112 96.1552 104.479C96.8417 103.841 97.2226 103.036 97.298 102.064L100.358 62.8052H43.6779L46.7732 102.064C46.8486 103.036 47.2296 103.841 47.9161 104.479C48.6026 105.116 49.4419 105.433 50.434 105.429ZM43.2434 56.966H100.792L101.697 45.8594L84.7978 29.596H59.202L42.3088 45.8652L43.2434 56.966ZM37.6599 62.3969L18.5881 44.7219C18.0325 44.1735 17.7548 43.5221 17.7548 42.7677C17.7548 42.0133 17.9929 41.3249 18.4691 40.7027C19.0286 40.0805 19.7131 39.7324 20.5227 39.6585C21.3322 39.5808 22.0545 39.853 22.6894 40.4752L37.0409 53.8744L36.5825 47.4344C36.5508 46.1705 36.769 44.9649 37.2373 43.8177C37.7056 42.6705 38.3881 41.6613 39.285 40.7902L53.8091 26.5569C54.6702 25.7091 55.7059 25.0324 56.9163 24.5269C58.1266 24.0174 59.3727 23.7627 60.6544 23.7627H83.3454C84.6271 23.7627 85.8732 24.0155 87.0835 24.521C88.2939 25.0344 89.3296 25.713 90.1907 26.5569L104.715 40.7902C105.608 41.6652 106.29 42.6802 106.763 43.8352C107.235 44.9902 107.453 46.2016 107.417 47.4694L106.959 53.8685L121.316 40.481C121.951 39.8588 122.672 39.5846 123.477 39.6585C124.287 39.7363 124.969 40.0844 125.525 40.7027C126.005 41.3249 126.245 42.0133 126.245 42.7677C126.245 43.5221 125.967 44.1716 125.412 44.716L106.34 62.3969H37.6599ZM93.5658 111.263H50.434C47.9458 111.263 45.7712 110.429 43.91 108.76C42.0489 107.092 41.0171 105.039 40.8147 102.6L37.6599 62.3969H106.34L103.185 102.606C102.987 105.04 101.955 107.092 100.09 108.76C98.2286 110.429 96.054 111.263 93.5658 111.263Z" fill="black"/>
</svg>
